<svg xmlns="http://www.w3.org/2000/svg" viewBox="0 0 278.21 329.75"><defs><style>.cls-1{fill:#c9f294;}</style></defs><g id="Ebene_2" data-name="Ebene 2"><g id="Ebene_1-2" data-name="Ebene 1"><path class="cls-1" d="M222.48,329.15c-12.07-5.22-22.51-12.32-28.33-17.8-3.55-3.35-11.79-11.53-13.32-14.64-3.91-8-3.13-5.06-5.29-8.58s-2.7-2.28-4.49-1.94-4,1.62-4.64,3.18l-5.8,13.4s-1.3.18-1.38-.59.93-4,.38-4.65.46-2-.36-2-2.06,1-2.73,2.52-4.26,8.9-4.39,9.21-.62.47-1-.45.12-2.17-.22-2.32a3.43,3.43,0,0,0-2.67,1.44c-.4.94-2.76,7.32-3.23,7.49s-1-.45-1.25-.91a20.73,20.73,0,0,0-.57-2.47c-.42-.92.19-1.4-.5-1.69a2.26,2.26,0,0,0-2.39.81c-.75.79-4.23,4.09-5.25,5.5a34.53,34.53,0,0,0-3.46,5.17c-.67,1.56-.25,2.48-1.15,1.72s-.92-2.61-.86-3.7,1.15-1.72-.23-2.32a5,5,0,0,0-4.46-.08,94.72,94.72,0,0,0-9,4.64c-2.32,1.59-2,2.82-2.8,1.75a4.53,4.53,0,0,1-.51-3.55c.19-1.4,1.84-1.43.12-2.17s-2.82-.11-5.85-.68-6.27-1.6-9-.93-7.69.74-9.74,1.71-3,1.28-3.09.51,1.83-3.28,2-4.68,1.15-1.72.6-2.33-4.27-1.48-5.31-1.92a14,14,0,0,0-4.89-1c-1.64,0-6.8-.36-7.76,0a14,14,0,0,1-3.43.37c-.83,0-1.86-.44-1.11-1.22a21.09,21.09,0,0,1,2.72-2.53c1.23-.95,2.88-1,2.33-1.58s.61-.48-.77-1.07l-8.28-3.58c-3.44-1.49-6.55-2.83-8.54-3a45.38,45.38,0,0,0-6-.36c-3.3.05-5.36,1-5.3-.07s1-1.41,2.25-2.36S46,287.65,47.09,287s2.13-.19,1.84-1.42-2.14-1.67-4.77-3.18-5.59-3.15-7.58-3.28-2.13.19-4.95.09-5.29-.07-4.89-1,3.69-2.84,5.05-4.1,3.42-2.23,3-3.15-2.84-2-3.05-2.43a23.19,23.19,0,0,0-2.08-2.75c-1.32-1.68-2.7-2.28-4.5-3.79s-1.88-2.29-4.15-3.65-2-2-4.43-3S12,254.46,12.65,254s1.79-.34,3.09-.52a60.71,60.71,0,0,0,6.18-1c1-.32,1.78-.34,1.71-1.11s-3.41-4.43-4.17-5.5-.29-1.24-1.19-2a59.26,59.26,0,0,0-5.53-4.24c-1.94-1.21-4.43-3-5.46-3.47s-2.07-.89-1.94-1.2-.07-.78,1.44-.49,2.9.88,4.68.54,4.26-.38,3.84-1.3A39.22,39.22,0,0,0,10.06,224c-3.82-5.35-4.93-6.57-6.46-8.72a16.45,16.45,0,0,0-3.12-3.19c-.56-.61,2.2.58,2.2.58L9.44,216l2.07.9s1.25.9.41-.94-4.28-10-5-12.15-2.74-6-3.65-8.6S.08,189.34,0,188.56s1.31-.17,2.42,1.05,1.87,2.29,3.25,2.88,1.8,1.52,2.21.59a10.58,10.58,0,0,0,.5-5c-.22-2.32-.18-5.26-.35-8.67s.06-9.6-.36-10.52.2-1.39-.09-2.63,1.45,1.37,2.08,2.75.71,2.16,1.27,2.77a1,1,0,0,0,1.91-.65c.2-1.4,1.83-11.8,1.74-14.43s.25-2.48.1-4,.46-2,.81-1.87.45,4.63.87,5.55,1,1.54,1.38.6a71.54,71.54,0,0,0,2.93-10.57c.26-2.49,1.28-3.9,1.61-5.6s1-3.27,1.07-2.5a21.65,21.65,0,0,0,.17,3.4c.29,1.24.5,1.7,1,1.54s3.83-9.82,3.83-9.82L29.92,126a5.21,5.21,0,0,1,.78,2.93c-.2,1.4-.26,2.48.09,2.63s5.6-12,5.6-12,1.12-5.44,1-7,1.42-2.35,1.37-1.26-.17,5.11.18,5.26,2.17-3.14,3.25-5.63a43.29,43.29,0,0,0,2.41-7.47c.33-1.71.85-4.81,1-5.13s.33-1.7.8-1.87-.37,4.65.4,5.72,1.63-1.88,3.38-5.93,2.61-8.87,2.32-10.1,1.64-1.89,1.79-.34-.65,5.27.39,5.72,2.69-6.24,3.37-7.8a16.53,16.53,0,0,0,1.05-6.21c-.16-1.54.38-2.79.31-3.56s1.42-2.35,1.65,0a7.08,7.08,0,0,0,1,3.39c.21.46,1.71-1.11,2.37-4.53s.43-5.73.61-9,1-5.12,1.61-3.74-.31,3.57.46,4.64,1.93,1.2,2.06.89L71.55,60c.14-.31-.23-10.83-.23-10.83l.54-1.25s.72,4,1.62,4.77,1.59,1.06,1.92-.65a8.89,8.89,0,0,1,1.35-3.12,39.93,39.93,0,0,0,.07-7.74c-.44-2.78-.59-4.33-.59-4.33s-.76-1.07-.28-1.23a1.24,1.24,0,0,1,1.38.6c.21.46.7,2.15.91,2.61s3-3.14,2.58-4.06-.11-4.49-.39-5.72.54-1.25-.17-3.41a35.23,35.23,0,0,1-1.06-4.16s1.09-.64,1.3-.18.36,2,1.4,2.46,2.06.89,1.36-1.26,0-4.8-.05-5.58a59.06,59.06,0,0,1-1.29-6.48c-.3-3.09-.35-8.66-.77-9.58s.33-1.71,1.94,1.21,5.85,9.19,6.82,10.72,2.93,4.59,3.56,6,1.6,2.91,1.81,3.37.63,1.39,1.11,1.22.54-1.24,1.29-2,4.28,10,6,12.59,3,5.37,4.17,5.51,1.44-.49,2-1.74-.23-2.32.67-1.56,5.76,15.08,6.66,15.84,1.88,2.29,3.12,3.19,1.11,1.22,1.86.44.68-1.56,1.62-3.74,1.42-2.35,1.42-2.35l1.46,1.37s2,6.78,3.3,8.46,2,4.92,4.66,7.2a27.26,27.26,0,0,0,3,2.42l.69.3,2.62-7s-.69-.3.48-.16,2.46,6.61,5.66,10.59,1.6,2.91,4.86,5.8,2.35,2.13,3,2.42.34.15,1.83-3.28.45-3.87,1.61-3.74,2.89,7.54,6.43,11.66,4,4,4.71,4.26l1,.44,2.22-6.07,1.38.6s3.09,8,4.75,9.82.71,2.16,2.43,2.91l2.42,1,2.42-5.61,1.17.13s-.33,1.71,2.39,5.84,1.89,4.15,3.69,5.67a8,8,0,0,0,3.31,1.8L198.7,102s-.42-.92.61-.48,3,7.23,5.24,9.67,1.53,2.14,3.25,2.89l1.73.74,2.29-5.3a8.51,8.51,0,0,0,1.68,3.69c1.53,2.14,3.21,5.83,4.8,6.88a18.29,18.29,0,0,0,1.94,1.21l2.29-5.3s1.92,7.86,5,10.29,3.26,2.88,3.26,2.88l.69.3,2.42-5.61a70.36,70.36,0,0,0,4.42,9.68c1.95,3.06,1.81,3.37,2.71,4.13s.56.61,1.84-1.42a18,18,0,0,1,2.66-3.29s.06-1.09.61-.48.77,9.59,2.72,12.65,1.68,3.69,3.06,4.28,1.3-.17,2.88-1a8.23,8.23,0,0,0,2.46-1.9l1.17.13a14.7,14.7,0,0,0-1.13,5.44c.09,2.63.05,5.57.55,7.27s-.33,1.7.91,2.61-.33,1.71,2.47,0a23.82,23.82,0,0,1,4.25-2.24s.75-.78.15,1.55-1.23,9.46-.94,10.7.64,3.24.85,3.7.5,1.69,1.32,1.68.56.61,2.75-.67,2.45-1.89,2.45-1.89l-.79,3.72c-.79,3.73-3.23,7.49-3,8.72s-.79,3.73-.37,4.65-.54,1.25,1.11,1.22,3.3-.05,4.39-.69a11,11,0,0,1,2.88-1l-4.37,11.07-2.36,6.38-.53,1.25,7,1.9,2.07.89s.56.61-.4.94-8.14,4.62-9.22,7.12-2.08,5.76-2.08,5.76,7.3,2,7.78,1.88-.81,1.87-3.27,3.77a53.13,53.13,0,0,0-5.45,5c-.75.79-1.75,4.06-2.5,4.84s-1.7,3-2.66,3.3-1.91.65-1.7,1.11,3.79,1.64,3.79,1.64l1.72.75a21.22,21.22,0,0,0-5.6,3.49c-2.11,2.05-3.67,4.71-5.38,5.82a15.77,15.77,0,0,0-2.59,2.21c-.62.48-.89,1.1-.33,1.71a24,24,0,0,0,4.21,2.56c.69.3,1.46,1.37.63,1.38s-4.81-.23-6.73.43-5.82,3-8.21,3.85-1.79.34-3.57.68-3.78.21-3.22.82a17.12,17.12,0,0,0,3.31,1.81l3.31,1.8s.29,1.23-.4.93-10.11-.29-12.23-.1a20,20,0,0,0-5,1.16c-1.44.49-2.32,1.59-1.08,2.5a10.14,10.14,0,0,1,2.3,3.21s-1-.45-5-1.77-7-2.67-8.2-2.81a39.3,39.3,0,0,0-4.47-.08c-1.65,0-1.44.49-.81,1.87s.44,2.78.1,2.63-5.66-2.07-7.52-2.51-4.83-2.08-4.06-1,1.62,4.77,1.7,5.54-.68,1.56-1.44.49a41.34,41.34,0,0,0-2.85-3.82c-1.11-1.22-1.74-2.61-3.81-3.5s-4-2.1-5-.69-3.48,3.31.12,6.34,18.1,18.26,23.35,22.68c6.3,5.32,5.34,5.64,9,7.59s9,4.65,9.38,4.8,2.11,4.61,1.91,6-.72,4.5-1.2,4.66S222.48,329.15,222.48,329.15Z"/></g></g></svg>