<svg xmlns="http://www.w3.org/2000/svg" viewBox="0 0 352 346"><defs><style>.cls-1{fill:#e28d47;}.cls-2{fill:#c9f294;}.cls-3{fill:#66340a;}</style></defs><g id="Ebene_2" data-name="Ebene 2"><g id="Ebene_1-2" data-name="Ebene 1"><ellipse class="cls-1" cx="176" cy="173" rx="176" ry="173"/><path class="cls-2" d="M251,289c-9.5-4.1-17.7-9.7-22.3-14.1-2.8-2.7-9.3-9.1-10.5-11.6-3.1-6.3-2.5-4-4.2-6.8s-2.1-1.8-3.5-1.5a5.79,5.79,0,0,0-3.7,2.5c-.5,1.2-4.6,10.7-4.6,10.7s-1,.1-1.1-.5.7-3.2.3-3.7.4-1.6-.3-1.6-1.6.8-2.2,2-3.4,7.1-3.5,7.3-.5.4-.8-.4.1-1.7-.2-1.8a2.74,2.74,0,0,0-2.1,1.1c-.3.7-2.2,5.8-2.6,5.9s-.8-.4-1-.7-.1-1.2-.4-2,.2-1.1-.4-1.3a1.81,1.81,0,0,0-1.9.7c-.6.6-3.3,3.3-4.1,4.4a26.34,26.34,0,0,0-2.7,4.1c-.5,1.2-.2,2-.9,1.4s-.7-2.1-.7-2.9.9-1.4-.2-1.8a3.91,3.91,0,0,0-3.5-.1,71.37,71.37,0,0,0-7.1,3.7c-1.8,1.3-1.6,2.2-2.2,1.4a3.35,3.35,0,0,1-.4-2.8c.2-1.1,1.5-1.1.1-1.7s-2.2-.1-4.6-.5-4.9-1.3-7.1-.7-6.1.6-7.7,1.4-2.4,1-2.4.4,1.4-2.6,1.6-3.7.9-1.4.5-1.9-3.4-1.2-4.2-1.5a10.76,10.76,0,0,0-3.9-.8c-1.3,0-5.4-.3-6.1,0a8.93,8.93,0,0,1-2.7.3c-.6,0-1.5-.3-.9-1a15,15,0,0,1,2.2-2c1-.8,2.3-.8,1.8-1.3s.5-.4-.6-.8-3.8-1.6-6.5-2.8-5.2-2.2-6.7-2.3a42.24,42.24,0,0,0-4.7-.3c-2.6,0-4.2.8-4.2,0s.8-1.1,1.8-1.9,1.9-3,2.8-3.5,1.7-.2,1.5-1.1-1.7-1.3-3.8-2.5-4.4-2.5-6-2.6-1.7.2-3.9.1-4.2,0-3.9-.8,2.9-2.3,4-3.3,2.7-1.8,2.4-2.5-2.2-1.6-2.4-1.9-.6-.8-1.6-2.2-2.1-1.8-3.5-3-1.5-1.8-3.3-2.9-1.6-1.6-3.5-2.4-3.6-.7-3.1-1,1.4-.3,2.4-.4,4.1-.6,4.9-.8,1.4-.3,1.3-.9-2.7-3.5-3.3-4.4-.2-1-.9-1.6a43.4,43.4,0,0,0-4.4-3.4,38.21,38.21,0,0,0-4.3-2.7c-.8-.3-1.6-.7-1.5-1s-.1-.6,1.1-.4,2.3.7,3.7.4,3.4-.3,3-1a31.51,31.51,0,0,0-4.1-7.7c-3-4.3-3.9-5.2-5.1-6.9a9,9,0,0,0-2.5-2.5c-.4-.5,1.7.5,1.7.5l5.3,2.6,1.6.7s1,.7.3-.7-3.4-7.9-3.9-9.6-2.1-4.8-2.9-6.8-2.5-4.6-2.6-5.2,1-.1,1.9.8a8,8,0,0,0,2.6,2.3c1.1.5,1.4,1.2,1.7.5a8.19,8.19,0,0,0,.4-3.9c-.2-1.8-.1-4.2-.3-6.9s.1-7.6-.3-8.4.2-1.1-.1-2.1,1.1,1.1,1.6,2.2a12,12,0,0,0,1,2.2.82.82,0,0,0,1.5-.5c.2-1.1,1.5-9.4,1.4-11.5s.2-2,.1-3.2.4-1.6.6-1.5.3,3.7.7,4.4.8,1.2,1.1.5a56.93,56.93,0,0,0,2.3-8.4c.2-2,1-3.1,1.3-4.4s.8-2.6.9-2-.1,1.7.1,2.7.4,1.3.8,1.2,3-7.8,3-7.8l1.3-5.9a3.7,3.7,0,0,1,.6,2.3c-.2,1.1-.2,2,.1,2.1s4.4-9.5,4.4-9.5a37,37,0,0,0,.8-5.5c-.1-1.2,1.1-1.9,1.1-1a26.37,26.37,0,0,0,.1,4.2c.3.1,1.7-2.5,2.6-4.5a28.11,28.11,0,0,0,1.9-5.9c.3-1.4.7-3.8.8-4.1s.3-1.4.6-1.5-.3,3.7.3,4.5,1.3-1.5,2.7-4.7,2.1-7,1.8-8,1.3-1.5,1.4-.3-.5,4.2.3,4.5,2.1-5,2.7-6.2a10.55,10.55,0,0,0,.8-4.9,9.87,9.87,0,0,1,.3-2.8c0-.6,1.1-1.9,1.3,0a5.89,5.89,0,0,0,.8,2.7c.2.4,1.3-.9,1.9-3.6a34.91,34.91,0,0,0,.5-7.1c.1-2.6.8-4.1,1.3-3s-.3,2.8.3,3.7,1.5,1,1.6.7,1.8-4.2,1.9-4.5-.2-8.6-.2-8.6l.4-1s.6,3.2,1.3,3.8,1.3.8,1.5-.5a7.4,7.4,0,0,1,1.1-2.5,34.31,34.31,0,0,0,.1-6.1c-.3-2.2-.5-3.4-.5-3.4s-.6-.8-.2-1a1,1,0,0,1,1.1.5,17.23,17.23,0,0,1,.7,2.1c.1.4,2.4-2.5,2-3.2s-.1-3.6-.3-4.5.4-1-.1-2.7a17.79,17.79,0,0,1-.8-3.3s.9-.5,1-.1.3,1.6,1.1,1.9,1.6.7,1.1-1,0-3.8,0-4.4a33.92,33.92,0,0,1-1-5.1c-.2-2.5-.3-6.9-.6-7.6s.3-1.4,1.5,1,4.6,7.3,5.4,8.5a48.29,48.29,0,0,1,2.8,4.7c.5,1.1,1.3,2.3,1.4,2.7s.5,1.1.9,1,.4-1,1-1.6,3.4,7.9,4.7,10,2.4,4.3,3.3,4.4,1.1-.4,1.6-1.4-.2-1.8.5-1.2,4.5,12,5.2,12.6a29.38,29.38,0,0,0,2.5,2.5c1,.7.9,1,1.5.3s.5-1.2,1.3-3,1.1-1.9,1.1-1.9l1.1,1.1s1.6,5.4,2.6,6.7,1.5,3.9,3.7,5.7,2.4,1.9,2.4,1.9l.5.2,2.1-5.6s-.5-.2.4-.1,1.9,5.2,4.4,8.4,1.3,2.3,3.8,4.6,1.9,1.7,2.4,1.9.3.1,1.4-2.6.4-3.1,1.3-3,2.3,6,5,9.2,3.2,3.1,3.7,3.4a4.77,4.77,0,0,1,.8.4l1.8-4.8,1.1.5s2.4,6.3,3.7,7.8.6,1.7,1.9,2.3,1.9.8,1.9.8l1.9-4.5.9.1s-.3,1.4,1.9,4.6,1.5,3.3,2.9,4.5a6,6,0,0,0,2.6,1.4l1.5-3.5s-.3-.7.5-.4,2.4,5.7,4.1,7.7,1.2,1.7,2.6,2.3l1.4.6,1.8-4.2a6.59,6.59,0,0,0,1.3,2.9c1.2,1.7,2.5,4.6,3.8,5.5a11.69,11.69,0,0,1,1.5,1l1.8-4.2s1.5,6.2,3.9,8.2a13.64,13.64,0,0,1,2.6,2.3l.5.2,1.9-4.5a52.75,52.75,0,0,0,3.5,7.7c1.5,2.4,1.4,2.7,2.1,3.3s.4.5,1.5-1.1a13.54,13.54,0,0,1,2.1-2.6s0-.9.5-.4.6,7.6,2.1,10,1.3,2.9,2.4,3.4,1-.1,2.3-.8a6,6,0,0,0,1.9-1.5l.9.1a10.84,10.84,0,0,0-.9,4.3,32.24,32.24,0,0,0,.4,5.8c.4,1.3-.3,1.4.7,2.1s-.3,1.4,2,0a19.65,19.65,0,0,1,3.3-1.8s.6-.6.1,1.2a39.5,39.5,0,0,0-.8,8.5,17.57,17.57,0,0,0,.7,2.9c.2.3.4,1.3,1,1.3s.4.5,2.2-.5,1.9-1.5,1.9-1.5l-.6,3c-.6,3-2.6,5.9-2.3,6.9s-.6,3-.3,3.7-.4,1,.9,1a6.48,6.48,0,0,0,3.5-.6,6.6,6.6,0,0,1,2.3-.8l-3.5,8.8-1.9,5.1-.4,1,5.5,1.5,1.6.7s.4.5-.3.7-6.4,3.7-7.3,5.7a47.21,47.21,0,0,0-1.7,4.6s5.8,1.6,6.1,1.5-.6,1.5-2.6,3a48.78,48.78,0,0,0-4.3,4c-.6.6-1.4,3.2-2,3.8s-1.3,2.4-2.1,2.6-1.5.5-1.3.9,3,1.3,3,1.3l1.4.6a16.72,16.72,0,0,0-4.4,2.8c-1.7,1.6-2.9,3.7-4.3,4.6a9.7,9.7,0,0,0-2,1.8c-.5.4-.7.9-.3,1.4a16.15,16.15,0,0,0,3.3,2c.5.2,1.1,1.1.5,1.1s-3.8-.2-5.3.3-4.6,2.4-6.5,3.1-1.4.3-2.8.5-3,.2-2.5.7a11.39,11.39,0,0,0,2.6,1.4l2.6,1.4s.2,1-.3.7-8-.2-9.6-.1a14.75,14.75,0,0,0-4,.9c-1.1.4-1.8,1.3-.9,2a9.21,9.21,0,0,1,1.8,2.5,35.23,35.23,0,0,0-3.9-1.4c-3.1-1-5.5-2.1-6.5-2.2s-2.2-.1-3.5-.1-1.1.4-.6,1.5.3,2.2.1,2.1-4.5-1.6-5.9-2-3.8-1.6-3.2-.8a13.58,13.58,0,0,1,1.3,4.4c.1.6-.5,1.2-1.1.4s-1.4-2.1-2.2-3-1.4-2.1-3-2.8-3.2-1.7-4-.5-2.7,2.6.1,5,14.2,14.5,18.4,18c5,4.2,4.2,4.5,7.1,6s7.1,3.7,7.4,3.8a12.34,12.34,0,0,1,1.5,4.8c-.2,1.1-.6,3.6-1,3.7S251,289,251,289Z"/><path class="cls-3" d="M107.41,169.31l2.37-.71c-5.32,1.59-10.29-2.22-15.37-2.36a28.35,28.35,0,0,1-15.31-4.49,24.91,24.91,0,0,1-9.44-11.45,37.33,37.33,0,0,1-2.87-15.88c.25-8.67,3-16.87,8.53-25a55,55,0,0,1,22-18.83c9.32-4.75,19.93-6.76,31.45-6.43l-.05,1.74a60.76,60.76,0,0,0-29.69,6.47,56,56,0,0,0-21.43,18.08,44.58,44.58,0,0,0-8.14,25c-.24,8.47,1.91,15.28,6.47,20,4.55,4.94,11.11,7.64,19.89,8.27A37.25,37.25,0,0,0,112,161c6.17-10.81,12.74-21.61,20.08-32.39a191.09,191.09,0,0,1,24.69-29.74q13.58-13.5,25-13.17c4.68.14,6.95,2.9,6.79,8.49-.12,4-1.83,9.19-5.12,15.07a101.35,101.35,0,0,1-14,18.68,132.5,132.5,0,0,1-21.43,18.28,129.58,129.58,0,0,1-26.59,14.27l-1.45,2.66c-5.76,10.24-9.67,17.07-11.52,20.29a110.64,110.64,0,0,1-7.95,11.53,102.83,102.83,0,0,1-11.91,13.15,101,101,0,0,1-16,11.88A52.61,52.61,0,0,0,95.63,226a23.83,23.83,0,0,0,11.21-2.38,41.87,41.87,0,0,0,11.59-9.11c4.43-4.31,11.3-12.21,20.8-23.31l-.06,2.12C132.49,201.24,127,207.45,123,212a85.31,85.31,0,0,1-10.25,9.92,26,26,0,0,1-17.17,5.87c-7-.2-15.37-2.37-24.82-6.68a64,64,0,0,1-12.24,4.27,52.57,52.57,0,0,1-12.73,1c-10.15-.29-15.35-3-15.2-8.14.15-5.4,4.72-8,13.9-7.7a45.7,45.7,0,0,1,10.31,1.45,57.21,57.21,0,0,1,11.78,5l3.86,1.85a95.91,95.91,0,0,0,19.5-19.11A206,206,0,0,0,107.41,169.31ZM67.48,219.63a84.66,84.66,0,0,0-13.14-5.2,46.5,46.5,0,0,0-11.08-2.05c-3.51-.1-6.26.4-8,1.51a5.15,5.15,0,0,0-3.06,4.34c-.11,4,4.32,6.1,13.11,6.35A48,48,0,0,0,67.48,219.63ZM121.81,158A137.72,137.72,0,0,0,149,142.36a121.88,121.88,0,0,0,20.07-18.51,105.31,105.31,0,0,0,12.21-17.19c2.89-5.31,4.37-9.32,4.44-11.82a10.3,10.3,0,0,0-1-5.23,3.3,3.3,0,0,0-3.26-2c-6.85.38-14,4.41-21.85,12.09a145.94,145.94,0,0,0-21.9,27.9A192.21,192.21,0,0,0,121.81,158Z"/><path class="cls-3" d="M136.75,196l-.14-1.93a117.89,117.89,0,0,1,16.68-16.1l8.2.24-22.43,32.7a18.88,18.88,0,0,0-3.12,6.46c-.44,1.92-.09,3.08,1.08,3.12,3.13.08,7.71-2.87,13.94-8.86a203.85,203.85,0,0,0,17.35-19.16l-.06,2.12a216.09,216.09,0,0,1-17.57,19.73c-5.63,5.62-10.2,8.19-13.71,8.09-1.95,0-2.89-1.62-2.8-4.51.24-8.67,5.45-19.7,15.79-33.09a19.67,19.67,0,0,1,1.63-2.07,16.31,16.31,0,0,1,1.42-1.89A71,71,0,0,0,136.75,196Zm32.72-44.16c1.37,0,1.92,1.21,1.85,3.52a5.36,5.36,0,0,1-.87,3.25,2.69,2.69,0,0,1-2.19,1.29c-1.56-.05-2.51-1-2.45-3.16a6.51,6.51,0,0,1,1.07-3.24C167.89,152.34,168.69,151.78,169.47,151.81Z"/><path class="cls-3" d="M165.44,197.18l.05-1.93c9.52-11.68,16.33-17.26,20-17.16,2.15.06,3.08,1.82,3,5.48A19.12,19.12,0,0,1,186.3,192c-1.44,2.66-4.12,7.4-8.22,14.22,7.86-8.45,14.5-15.2,20.31-20,5.61-5,10.57-7.41,14.47-7.3,2.15.06,3.07,2,2.95,6.06a25.37,25.37,0,0,1-3.25,11.47,49.27,49.27,0,0,1-9.92,12c-4.83,4.88-7.28,8.28-7.34,10.39a3.73,3.73,0,0,0,.72,2.34,2.35,2.35,0,0,0,1.72,1.2c2.15.06,4.93-1.4,8.54-4.57a156,156,0,0,0,11.87-12c4.24-4.89,7.68-8.84,10.3-11.65l-.06,2.12c-3.85,4.7-7.69,9-11.32,13.16a94.17,94.17,0,0,1-10.85,10.49q-5.41,4.47-8.92,4.37a3.18,3.18,0,0,1-3.07-2,10.37,10.37,0,0,1-.86-4.26c.1-3.28,1.17-6.71,3-10.71a46.73,46.73,0,0,1,8-11.53A80,80,0,0,0,212.49,185q2.16-4-1.06-4.08-4.4-.12-13.11,7.72a189.65,189.65,0,0,0-16.69,16.48c-5.25,5.83-10.1,11.47-14.76,17.12l-7-.2,12.65-18.53c9.37-13.41,13.88-20.8,13.91-21.95,0-.77-.35-1.36-1.13-1.39C182.36,179.54,175.74,185.33,165.44,197.18Z"/><path class="cls-3" d="M257.43,192.09l51.42-76.39,7.42.21L256.08,205c-1.42,1.89-2.85,4.16-4.48,6.62a66.55,66.55,0,0,0-3.49,5.87,11.93,11.93,0,0,0-1.49,4.2c-.24,1.34.14,1.93,1.31,2,1.56,0,5.36-3.12,11.6-9.49s11.9-12.77,17.35-19l-.06,2.12c-7.47,8.46-13.72,15.22-18.76,20.47-5,5.06-8.62,7.66-11,7.59-1.56,0-2.31-1.41-2.23-3.91a44.21,44.21,0,0,1,2.91-13,.62.62,0,0,0-.19-.39.19.19,0,0,0-.19-.2c-8.73,11.51-15.53,17.1-20.41,17-3.52-.1-5.16-4.2-4.93-12.09a31.38,31.38,0,0,1,5.56-17,36.11,36.11,0,0,1,13-11.77c5.16-2.75,9.5-4.17,13.4-4,3.13.08,4.64,1.86,4.54,5.52A15,15,0,0,1,257.43,192.09Zm-3.61-10.51c-2.54-.07-6.12,2.33-10.95,7a80.54,80.54,0,0,0-12.77,16c-3.69,6.06-5.58,10.64-5.68,14.1-.07,2.7.86,4.27,2.81,4.32,2.74.08,6.52-2.32,11.34-7a90.33,90.33,0,0,0,13.16-16c3.89-6.06,5.77-10.44,5.86-13.71C257.49,183.23,256.36,181.66,253.82,181.58Z"/><path class="cls-3" d="M314,196.21l-.06,2.12c-7.1,9.24-13.56,16.19-19.36,21s-11.53,7-17.39,6.82q-7.62-.21-7.27-12.35a29,29,0,0,1,6-17.56,41.25,41.25,0,0,1,13.22-11.38c5-2.55,9.1-3.78,12.23-3.69a5.07,5.07,0,0,1,4.05,1.85,6.81,6.81,0,0,1,1.43,4.47,11.84,11.84,0,0,1-3.54,7.8,28,28,0,0,1-9.54,5.7,44.51,44.51,0,0,1-14.14,2.3c-4.9,7.18-7.39,12.51-7.5,16.36a4.09,4.09,0,0,0,1.47,3.32,5.18,5.18,0,0,0,3.67,1.45C287.18,224.74,299.37,215.26,314,196.21Zm-32.57,4.66a27.39,27.39,0,0,0,12.77-2.33,20.08,20.08,0,0,0,8-6.13c1.83-2.46,2.86-4.35,2.9-5.89.07-2.51-.87-3.69-3-3.75-2.73-.08-5.9,1.56-9.71,4.73A70.75,70.75,0,0,0,281.41,200.87Z"/></g></g></svg>